<?xml version="1.0" standalone="no"?> <!DOCTYPE svg PUBLIC "-//W3C//DTD SVG 1.0//EN" "http://www.w3.org/TR/2001/REC-SVG-20010904/DTD/svg10.dtd" > <svg xmlns="http://www.w3.org/2000/svg" width="100%" height="100%">
<defs >
<font id="wisdomscript" horiz-adv-x="395" ><font-face
    font-family="Wisdom Script AI"
    units-per-em="1000"
    panose-1="0 0 0 0 0 0 0 0 0 0"
    ascent="750"
    descent="-251"
    alphabetic="0" />
<missing-glyph horiz-adv-x="500" />
<glyph unicode=" " glyph-name="space" horiz-adv-x="305" />
<glyph unicode="!" glyph-name="exclam" horiz-adv-x="323" d="M14 24T14 50T31 93T74 111Q100 111 117 94T135 50Q135 25 118 8T74 -10T31 7ZM184 152H79L406 720H510L184 152Z" />
<glyph unicode="&quot;" glyph-name="quotedbl" horiz-adv-x="354" d="M100 541L102 581H108Q126 581 145 591T174 615Q151 619 138 632T124 665Q124 692 140 706T177 720Q200 720 218 705T236 664Q236 613 195 577T107 541H100ZM250 541L252 581H258Q276 581
295 591T324 615Q301 619 288 632T274 665Q274 692 290 706T327 720Q350 720 368 705T386 664Q386 613 345 577T257 541H250Z" />
<glyph unicode="#" glyph-name="numbersign" horiz-adv-x="751" d="M417 0H322L399 135H274L197 0H102L179 135H39L79 205H219L277 305H138L178 375H317L389 500H483L411 375H537L609 500H703L631 375H766L726 305H591L534 205H667L627 135H494L417 0ZM371 305L314
205H439L497 305H371Z" />
<glyph unicode="$" glyph-name="dollar" horiz-adv-x="425" d="M181 254Q151 310 151 357Q151 435 196 477T302 519Q313 519 337 515L396 618H474L399 487Q448 448 448 388Q448 350 428 307H341Q364 347 364 380Q364 409 348 426T308 444T264 423T243 365Q243
342 258 311T289 254Q319 198 319 151Q319 73 274 31T168 -11Q157 -11 139 -9L90 -96H12L74 13Q27 41 12 91T22 201H109Q81 159 97 112T162 64Q185 64 206 85T227 143Q227 166 212 197T181 254Z" />
<glyph unicode="%" glyph-name="percent" horiz-adv-x="575" d="M-46 0H59L619 500H515L-46 0ZM156 388T156 424T180 485T241 510T302 485T327 424T302 364T241 339T181 363ZM256 38T256 74T280 135T341 160T402 135T427 74T402 14T341 -11T281 13ZM214 435T214
424T222 405T241 397T260 405T268 424T260 443T241 451T222 443ZM314 85T314 74T322 55T341 47T360 55T368 74T360 93T341 101T322 93Z" />
<glyph unicode="&amp;" glyph-name="ampersand" horiz-adv-x="391" d="M-51 -96L4 1Q-41 26 -48 78T-13 212Q47 318 132 334Q90 390 139 474Q178 542 221 565T326 591L373 672H451L397 577Q438 554 450 508T436 405H334L343 420Q361 451 363 477T353 514T322 526T279
508T233 453L221 432Q199 387 213 363T261 339L233 291Q141 291 94 212L59 152Q42 121 42 99T55 67T88 58T129 73T165 112L185 147L288 148L284 140L273 120Q235 55 181 21T73 -15L27 -96H-51Z" />
<glyph unicode="&apos;" glyph-name="quotesingle" horiz-adv-x="175" d="M131 536L133 576H139Q157 576 176 586T205 610Q182 614 169 627T155 660Q155 687 171 701T208 715Q231 715 249 700T267 659Q267 608 226 572T138 536H131Z" />
<glyph unicode="(" glyph-name="parenleft" horiz-adv-x="378" d="M535 777L571 751Q509 723 448 674T336 566T241 437T167 299T117 163T97 42T110 -55L55 -81Q24 -18 22 65T41 233T111 406T220 567T364 696T535 777Z" />
<glyph unicode=")" glyph-name="parenright" horiz-adv-x="470" d="M-65 -81L-105 -55Q-43 -27 19 22T131 130T227 259T302 397T352 533T373 654T360 751L415 777Q446 714 448 631T429 463T359 290T250 129T106 0T-65 -81Z" />
<glyph unicode="*" glyph-name="asterisk" horiz-adv-x="480" d="M233 690L292 586L353 691H424L345 555H501L466 494H345L405 389L352 359L292 464L232 360H162L239 494H84L119 555H240L180 661L233 690Z" />
<glyph unicode="+" glyph-name="plus" horiz-adv-x="545" d="M220 63H125L220 228H65L105 298H261L346 444H440L355 298H513L473 228H315L220 63Z" />
<glyph unicode="," glyph-name="comma" horiz-adv-x="126" d="M14 -74L16 -34H22Q40 -34 59 -24T88 0Q65 4 52 17T38 50Q38 77 54 91T91 105Q114 105 132 90T150 49Q150 -2 109 -38T21 -74H14Z" />
<glyph unicode="-" glyph-name="hyphen" horiz-adv-x="519" d="M65 228L105 298H463L423 228H65Z" />
<glyph unicode="." glyph-name="period" horiz-adv-x="241" d="M26 23T26 47T42 88T83 105T124 88T141 47T124 7T83 -10T43 6Z" />
<glyph unicode="/" glyph-name="slash" horiz-adv-x="570" d="M59 0H-46L736 699H840L59 0Z" />
<glyph unicode="0" glyph-name="zero" horiz-adv-x="435" d="M26 212L71 289L122 378Q165 453 213 483T324 514Q373 514 406 484T443 406T417 302L312 120Q281 66 236 32T148 -11T68 -9T9 31T-10 107T26 212ZM177 289L98 152Q81 121 81 99T94 67T127 58T168 73T204
112L337 341Q355 372 357 398T347 435T316 447T273 429T227 374L177 289Z" />
<glyph unicode="1" glyph-name="one" horiz-adv-x="343" d="M124 355L102 420Q124 428 144 434T186 450T226 468T265 490T305 518L345 427L139 70H231L191 0H-80L-40 70H46L235 397Q193 374 124 355Z" />
<glyph unicode="2" glyph-name="two" horiz-adv-x="467" d="M-31 67Q53 86 112 112T234 193T346 334Q361 359 364 381T362 416T342 435T311 437T274 415T238 370L209 324H103L142 392Q163 430 192 456T252 494T314 507T372 500T419 473T448 429T454 369T428 298Q377
206 303 150T152 67H335L296 0H-70L-31 67Z" />
<glyph unicode="3" glyph-name="three" horiz-adv-x="458" d="M154 172L193 239Q251 239 285 257T343 317Q372 369 369 403T332 438Q284 438 241 365L220 329H114L141 378Q184 453 232 483T343 514Q384 514 412 494T452 442T459 373T436 302Q403 244 366 216T277
179Q303 143 305 97T277 -8Q195 -150 46 -150Q-15 -150 -47 -110T-76 -16T-37 83H61L50 69Q40 55 30 28T19 -27Q19 -51 35 -65T75 -79T130 -55T187 12Q224 80 212 126T154 172Z" />
<glyph unicode="4" glyph-name="four" horiz-adv-x="463" d="M-65 0L-87 65Q42 165 170 278T362 454L425 518L465 427L259 70H362L322 0H219L139 -140H47L127 0H-65ZM322 338Q179 186 31 70H167L322 338Z" />
<glyph unicode="5" glyph-name="five" horiz-adv-x="429" d="M124 207L117 214L73 256L215 500H484L438 420H258L193 306Q198 307 210 307Q259 307 291 277T328 199T303 95L232 -31Q208 -74 173 -102T103 -140T33 -149T-29 -132T-73 -92T-89 -33T-66 41L-43 82H59L21
14Q4 -17 4 -39T20 -70T56 -76T101 -57T141 -10L223 134Q239 162 241 187T232 227T205 246T166 241T124 207Z" />
<glyph unicode="6" glyph-name="six" horiz-adv-x="448" d="M490 494L416 489Q422 516 409 530T374 543T326 525T281 476L261 441Q280 447 305 447Q354 447 382 417T411 338T380 235L309 109Q285 66 251 38T182 0T114 -9T54 8T12 48T-2 107T21 181L44 222L200
497Q236 560 289 590T387 617T463 579T490 494ZM198 331L136 222L98 154Q81 123 81 101T97 70T133 64T178 83T218 130L300 274Q322 313 317 338T295 376T250 378T198 331Z" />
<glyph unicode="7" glyph-name="seven" horiz-adv-x="385" d="M67 419L113 500H403L448 427L408 383Q367 339 308 269T169 87T22 -140H-80Q88 143 329 419H67Z" />
<glyph unicode="8" glyph-name="eight" horiz-adv-x="438" d="M324 120Q293 66 248 32T161 -11T81 -9T22 30T2 106T38 212L58 247Q115 348 208 365Q202 382 202 402Q202 446 233 498Q268 560 307 585T399 610Q441 610 468 583T495 511Q495 468 468 421Q423 346
356 321Q402 258 353 171L324 120ZM123 175L110 152Q93 121 93 99T106 67T139 58T180 73T216 112L273 210Q291 241 293 267T283 304T252 316T209 298T163 243L123 175ZM330 497L292 430Q278 399 286 381T320 368T363 403L404 475Q421 504 417 520T401 544T368 540T330
497Z" />
<glyph unicode="9" glyph-name="nine" horiz-adv-x="447" d="M-52 6L22 11Q16 -16 29 -30T64 -43T112 -25T157 24L177 59Q156 53 133 53Q66 53 45 117T68 265L139 391Q163 434 197 462T266 500T334 509T393 492T435 452T449 393T426 319L403 278L247 3Q211 -60
157 -90T56 -117T-23 -79T-52 6ZM240 169L302 278L340 346Q357 377 357 399T341 430T305 436T260 417T220 370L138 226Q110 176 114 149T136 113T185 118T240 169Z" />
<glyph unicode=":" glyph-name="colon" horiz-adv-x="374" d="M14 23T14 47T30 88T71 105T112 88T129 47T112 7T71 -10T31 6ZM214 333T214 357T230 398T271 415T312 398T329 357T312 317T271 300T231 316Z" />
<glyph unicode=";" glyph-name="semicolon" horiz-adv-x="355" d="M14 -74L16 -34H22Q40 -34 59 -24T88 0Q65 4 52 17T38 50Q38 77 54 91T91 105Q114 105 132 90T150 49Q150 -2 109 -38T21 -74H14ZM194 302T194 326T210 367T251 384T292 367T309 326T292 286T251
269T211 285Z" />
<glyph unicode="&lt;" glyph-name="less" horiz-adv-x="535" d="M9 213L44 275L567 510L511 410L118 223L308 60L268 -10L9 213Z" />
<glyph unicode="=" glyph-name="equal" horiz-adv-x="490" d="M60 153L100 223H368L328 153H60ZM133 278L173 348H441L401 278H133Z" />
<glyph unicode="&gt;" glyph-name="greater" horiz-adv-x="535" d="M526 287L491 225L-32 -10L24 90L417 277L227 440L267 510L526 287Z" />
<glyph unicode="?" glyph-name="question" horiz-adv-x="489" d="M223 152H118L217 324L225 339Q419 430 461 551Q470 579 470 603T460 640T434 659T397 658T354 634T309 583T268 504L188 518Q204 582 239 631T315 706T400 740T480 736T539 689T562 602Q562 523
489 440T301 291H302L223 152ZM53 23T53 47T69 88T110 105T151 88T168 47T151 7T110 -10T70 6Z" />
<glyph unicode="@" glyph-name="at" horiz-adv-x="867" d="M239 -150Q147 -130 84 -82T-8 28T-39 164T-18 310T54 446T166 558T318 626T500 635Q581 624 639 590T725 509T763 404T760 290T719 178T649 82T551 15T435 -10Q396 -10 373 8T345 58Q262 -10 201 -10Q139
-10 118 35T130 138L276 390Q308 445 359 477T454 510Q502 510 534 476T563 405H622L454 111Q438 80 442 67T466 54Q521 54 571 89T653 178T697 297T696 421T631 526T496 588Q423 601 352 584T225 527T124 431T54 313T27 187T45 67T122 -31T260 -93Q311 -104 360
-104T454 -95T540 -68T621 -26T694 26T762 85T823 147T880 210L887 218Q898 213 909 203T926 182Q870 114 812 59T685 -44T546 -120T397 -158T239 -150ZM365 364L220 111Q204 80 208 67T232 54Q266 54 310 91T400 200L481 342Q495 369 494 389T478 418T445 425T404
408T365 364Z" />
<glyph unicode="A" glyph-name="A" horiz-adv-x="994" d="M987 210L994 218Q1005 213 1016 203T1033 182Q979 119 947 85T870 21T789 -10T736 11T719 65T734 138L771 244H631Q541 124 455 57T270 -10Q206 -10 154 14T71 80T26 175T23 291T71 417Q126 512 219 551T401
562T528 441L445 409Q421 468 368 487T254 476T149 372Q119 320 112 268T118 174T172 106T270 80Q324 80 383 119T497 219T607 352T717 494T822 618T926 699T1026 711L820 111Q810 80 810 70T823 60Q837 60 884 103T987 210ZM892 589Q845 541 781 453T668 294H788L892
589Z" />
<glyph unicode="B" glyph-name="B" horiz-adv-x="759" d="M146 472L188 419Q113 371 98 276T138 107Q159 133 178 166L458 650Q492 709 538 740T630 772Q689 772 727 745T773 675T769 587T714 500T611 438Q659 406 682 355T704 248T675 135T606 34T497 -39T356
-68Q269 -68 200 -38T91 41T33 150T22 270T61 384T146 472ZM354 12Q414 12 465 39T548 107T592 198T597 293T553 374T459 422L431 425L256 122Q230 79 204 48Q268 12 354 12ZM550 630L466 486Q548 488 595 509T671 586Q683 610 685 632T680 670T659 693T627 699T589
679T550 630Z" />
<glyph unicode="C" glyph-name="C" horiz-adv-x="538" d="M186 371L348 650Q382 709 428 740T520 772Q579 772 618 729T658 617Q658 551 616 477Q558 376 473 327T297 277Q270 277 238 282L209 231Q166 152 185 103T261 54Q397 54 531 210L538 218Q566 210 577
182Q527 124 484 86T375 19T236 -10Q165 -10 124 31T84 131T119 256L150 310Q88 342 54 398T19 517Q19 634 126 711L160 650Q93 598 93 519Q93 474 117 434T186 371ZM276 346H297Q373 346 440 394T542 505T577 618Q577 682 520 682Q470 682 426 606L276 346Z" />
<glyph unicode="D" glyph-name="D" horiz-adv-x="937" d="M274 89L285 109L586 629Q584 629 579 629T571 630Q512 630 462 610T380 557T332 485T319 407T348 336L288 282Q249 317 237 372T242 484T299 593T409 676T567 709Q648 709 712 687T817 626T882 537T912
429T910 311T879 193T821 84T741 -5T640 -65T523 -88Q479 -88 437 -76T371 -53T309 -19Q243 -102 142 -102Q81 -102 47 -71T13 4Q13 50 51 84T159 119Q212 119 274 89ZM521 -8Q584 -8 642 31T740 130T801 264T819 406T781 531T678 612L352 46Q445 -8 521 -8ZM154
-22Q185 -22 203 -12T236 20Q189 39 149 39Q128 39 116 30T104 9Q104 -4 117 -13T154 -22Z" />
<glyph unicode="E" glyph-name="E" horiz-adv-x="683" d="M475 237L536 280Q583 225 583 155T548 26T444 -73T298 -114Q177 -114 96 -42T15 150Q15 297 121 395T368 488Q348 528 348 569Q348 648 398 700T524 753Q595 753 644 713T693 603Q693 567 678 536T647
490L632 477L576 536Q581 536 596 556T612 608Q612 647 585 668T524 686T463 651T435 566Q435 534 450 508T477 473T500 457Q500 456 502 456L471 402Q456 407 438 416Q363 443 285 415T155 314T103 152Q103 69 164 17T305 -35Q358 -35 405 -7T475 62T503 151T475
237Z" />
<glyph unicode="F" glyph-name="F" horiz-adv-x="757" d="M346 513H257Q256 519 256 531Q256 591 297 631T394 687T512 702Q549 701 590 701T668 705T745 719T820 752L874 661H873L707 373H793L766 323H678L561 120Q499 12 418 -39T253 -90Q153 -90 84 -28T14
123Q14 217 86 283T253 350V271Q190 271 145 230T99 127Q99 70 143 33T252 -4Q312 -4 369 31T469 140L574 323H475L502 373H602L757 642Q721 627 665 625T564 625Q346 625 346 520V513Z" />
<glyph unicode="G" glyph-name="G" horiz-adv-x="664" d="M189 371L351 650Q385 709 431 740T523 772Q601 772 644 736T693 644T672 525T596 405T467 314T300 277Q273 277 241 282L212 231Q166 152 173 103T234 54Q339 54 433 220L444 238H548L416 12Q526 59 657
210L664 218Q675 213 686 203T703 182Q541 -6 375 -58L295 -195Q268 -241 228 -264T153 -285T93 -261T67 -202Q67 -94 295 -24L322 23Q269 -10 209 -10Q139 -10 106 30T79 131T122 256L153 310Q91 342 57 398T22 517Q22 634 129 711L163 650Q96 598 96 519Q96 474
120 434T189 371ZM279 346H300Q365 346 422 371T516 433T575 514T599 595T583 657T523 682Q473 682 429 606L279 346ZM151 -183Q151 -197 160 -203T184 -203T208 -178L255 -94Q151 -134 151 -183Z" />
<glyph unicode="H" glyph-name="H" horiz-adv-x="1109" d="M846 0H741L927 323H771L704 206Q648 110 580 46T445 -45T312 -74T190 -55T92 8T28 98T10 210T50 332Q74 373 106 401T164 440T207 454L225 457L244 380L224 373Q205 366 177 344T129 289Q104 247 102
204T115 127T163 66T236 27T328 19T428 49T530 125T626 252L837 618Q795 597 716 577T578 534T499 475Q478 432 486 405T516 364L538 351L499 284Q471 295 448 315T407 363T391 431T417 512Q441 553 483 579T577 619T683 647T801 686T914 752L967 661L800 373H956L1104
628Q1147 702 1200 735T1297 764T1373 734T1415 677L1346 639Q1331 673 1306 680T1249 667T1190 596L846 0Z" />
<glyph unicode="I" glyph-name="I" horiz-adv-x="502" d="M207 351L168 284Q140 295 117 315T76 363T60 431T86 512Q110 553 152 579T246 619T352 647T470 686T583 752L636 661L113 -250H6L506 618Q464 597 385 577T247 534T168 475Q147 432 155 405T186 364L207 351Z" />
<glyph unicode="J" glyph-name="J" horiz-adv-x="680" d="M294 163L342 116Q321 79 281 58T195 36Q117 36 71 86T25 209Q25 259 44 301T96 372T173 429T268 479T371 527Q443 562 507 591T642 663T764 752L823 684L431 12Q542 59 673 210L680 218Q691 213 702 203T719
182Q558 -6 390 -58L311 -195Q284 -241 244 -264T169 -285T109 -261T83 -202Q83 -92 312 -24L671 601Q644 580 611 560T544 523T474 490T403 458Q383 449 342 432T279 404T226 377T176 346T140 311T113 266T105 214Q105 167 131 138T198 108Q255 108 294 163ZM167
-183Q167 -197 176 -203T200 -203T224 -178L272 -94Q167 -134 167 -183Z" />
<glyph unicode="K" glyph-name="K" horiz-adv-x="1061" d="M1031 526L1073 599Q1107 659 1149 693T1228 732T1299 728T1355 696T1384 648L1315 610Q1304 635 1286 646T1247 653T1203 626T1159 567L1116 491Q1073 414 1027 373T903 327Q982 247 901 106L747 -161Q733
-179 735 -210T761 -253L717 -329Q676 -308 658 -271T643 -195T669 -117L823 150Q895 276 788 338L712 206Q656 110 588 46T453 -45T320 -74T198 -55T100 8T36 98T18 210T58 332Q82 373 114 401T172 440T215 454L233 457L252 380L232 373Q213 366 185 344T137 289Q112
247 110 204T123 127T171 66T244 27T336 19T436 49T538 125T634 252L845 618Q803 597 724 577T586 534T507 475Q486 432 494 405T524 364L546 351L507 284Q479 295 456 315T415 363T399 431T425 512Q449 553 491 579T585 619T691 647T809 686T922 752L975 661L820
392Q939 366 1031 526Z" />
<glyph unicode="L" glyph-name="L" horiz-adv-x="766" d="M346 711L380 650Q313 598 313 519Q313 474 337 434T406 371L568 650Q602 709 648 740T740 772Q799 772 838 729T878 617Q878 551 836 477Q778 376 693 327T517 277Q490 277 458 282L366 122Q358 108 338
79Q395 19 396 18Q503 -90 557 -131T667 -173Q753 -173 811 -116L862 -170L843 -191Q824 -212 775 -233T665 -255Q630 -255 593 -242T527 -211T460 -160T400 -104T338 -39T282 20Q204 -45 117 -45Q47 -45 9 -7T-30 85T7 177T112 216Q193 216 274 143Q277 147 282
155T288 166L371 310Q308 342 274 397T239 517Q239 634 346 711ZM646 606L496 346H517Q593 346 660 394T762 505T797 618Q797 682 740 682Q690 682 646 606ZM107 35Q171 35 220 79Q153 136 102 136Q77 136 62 121T47 84Q47 64 62 50T107 35Z" />
<glyph unicode="M" glyph-name="M" horiz-adv-x="935" d="M574 -29L932 593Q944 614 945 629T936 649T904 644T853 610T782 538T692 423L691 422L449 0H343L685 593Q697 614 698 629T690 649T659 645T609 612T539 543T451 432L203 0H96L452 618Q410 597 331 577T194
534T115 475Q94 432 102 405T132 364L154 351L115 284Q87 295 64 315T23 363T7 431T33 512Q57 553 99 579T193 619T299 647T417 686T530 752L583 661L555 612Q649 730 734 730Q778 730 798 695T795 604Q894 730 981 730Q1028 730 1047 692T1037 594L652 -73Q638
-91 640 -122T666 -165L622 -241Q581 -220 563 -183T548 -107T574 -29Z" />
<glyph unicode="N" glyph-name="N" horiz-adv-x="1107" d="M857 0H752L827 495L731 327Q664 210 588 131T441 19T304 -20T183 -1T90 66T33 166T21 289T66 420Q100 479 153 519T266 571T382 577T485 534T552 441L479 403Q454 464 392 483T262 474T157 382Q128 332
122 283T128 194T170 125T239 82T329 74T429 107T534 189T636 327L862 720H966L890 222L1125 628Q1168 702 1220 735T1313 764T1386 734T1426 677L1357 639Q1342 673 1317 680T1260 667T1201 596L857 0Z" />
<glyph unicode="O" glyph-name="O" horiz-adv-x="566" d="M228 500H279Q269 574 315 652Q351 714 401 748T498 787T588 773T656 719T681 631T649 522L569 383Q658 400 737 471L766 414Q659 316 529 314L418 120Q387 66 347 27T266 -33T186 -58T112 -55T56 -23T23
33T22 113T62 212L228 500ZM434 328Q339 358 298 437L134 152Q109 107 109 74T133 30T187 20T252 47T310 112L434 328ZM396 614Q353 526 375 466T468 386L569 561Q587 593 589 623T580 673T547 702T500 708T447 679T396 614Z" />
<glyph unicode="P" glyph-name="P" horiz-adv-x="662" d="M119 0H14L419 700H523L336 375Q370 336 423 327T535 348T633 447Q677 523 679 591T652 703T571 771T463 793T349 755T255 654Q232 613 220 572L208 532L137 543L140 564Q143 586 155 623T186 693Q223
758 276 799T387 854T502 863T612 833T700 766T756 672T767 552T718 416Q677 344 619 304T504 260T396 273T309 330L119 0Z" />
<glyph unicode="Q" glyph-name="Q" horiz-adv-x="739" d="M263 268L249 199Q166 206 125 266T89 405T135 555Q181 635 241 689T362 765T481 786T590 760T674 689T721 584T718 445T652 282Q609 206 546 140T408 29Q445 -6 486 -42T563 -107T641 -154T720 -173Q806
-173 864 -116L915 -170L896 -191Q877 -212 828 -233T718 -255Q683 -255 646 -243T580 -215T513 -169T454 -119T392 -61T336 -8Q249 -45 170 -45Q101 -45 62 -14T23 61T60 135T165 166Q239 166 337 90Q403 129 461 191T561 324Q602 395 619 458T630 565T603 641T548
689T473 705T391 687T309 633T238 544Q202 481 190 430T186 346T215 295T263 268ZM160 35Q207 35 261 54Q201 96 155 96Q130 96 116 87T101 66Q101 53 116 44T160 35Z" />
<glyph unicode="R" glyph-name="R" horiz-adv-x="664" d="M119 0H14L404 675H508L355 410Q447 370 524 404T643 526Q689 620 638 688T494 756Q444 756 405 737T344 691T310 638T292 592L288 573L200 587L204 606Q209 625 219 654T252 716T304 779T384 827T494
846Q588 846 651 808T738 713T755 588T714 463T616 367T474 327Q551 245 471 106L317 -161Q303 -179 305 -210T331 -253L287 -329Q246 -308 228 -271T213 -195T239 -117L393 150Q475 292 331 351L323 354L119 0Z" />
<glyph unicode="S" glyph-name="S" horiz-adv-x="880" d="M10 53L41 92Q105 48 188 65Q171 111 170 161T186 257T233 340T313 400T423 422Q503 422 560 367L707 511Q717 672 760 752T896 833Q945 833 969 803T983 725T921 628L801 510Q797 445 797 337Q797 147
709 21T463 -105Q299 -105 219 8Q93 -23 10 53ZM393 111Q348 68 303 43Q358 -22 463 -22Q578 -22 640 77T702 337V414L600 313Q630 259 621 194T560 88L517 132Q582 194 552 267L393 111ZM423 351Q374 351 336 327T280 265T257 183T270 97Q307 120 338 149L512
320Q473 351 423 351ZM880 754Q830 754 810 613L852 654Q876 677 889 696T902 728T898 747T880 754Z" />
<glyph unicode="T" glyph-name="T" horiz-adv-x="653" d="M86 202L142 148Q89 94 108 43T201 -8Q300 -8 385 140L681 657Q608 618 520 618Q506 618 462 620T406 622Q341 622 299 589T256 513Q256 460 306 432L255 368Q214 390 193 426T172 503Q172 590 243 646T428
702Q439 702 479 702T532 701Q581 701 632 713T710 739L736 752L790 661H789L477 120Q355 -90 189 -90Q132 -90 89 -61T28 11T24 106T86 202Z" />
<glyph unicode="U" glyph-name="U" horiz-adv-x="774" d="M767 210L774 218Q785 213 796 203T813 182Q648 -10 542 -10Q501 -10 477 10T451 64Q410 29 369 11T293 -7T235 9T202 58T205 140T253 252L475 638Q441 621 386 603T287 571T201 537T134 489T110 424Q110
401 124 383T152 358L165 351L126 284Q83 301 51 338T19 426Q19 486 53 528T147 595T271 640T412 688T541 752L594 661L331 206Q306 163 300 131T303 83T335 67T384 78T444 121T503 193L807 720H911L561 111Q545 80 549 67T573 54Q633 54 767 210Z" />
<glyph unicode="V" glyph-name="V" horiz-adv-x="699" d="M380 0H287L472 647Q438 628 383 609T282 575T191 541T120 492T94 424Q94 378 126 356T200 344T271 396L319 349Q298 312 258 291T172 269Q128 269 92 290T37 345T18 420T38 502T110 579T237 636Q420 687
518 752L577 684L447 233L718 628Q758 684 801 716T881 755T950 753T1002 724T1029 677L960 639Q937 690 896 679T804 596L380 0Z" />
<glyph unicode="W" glyph-name="W" horiz-adv-x="936" d="M1023 596L767 148Q733 88 688 49T599 -4T516 -14T451 11T418 68Q381 28 343 8T274 -13T221 0T187 39T180 100T207 174L473 638Q439 621 385 603T286 571T199 537T132 489T108 424Q108 401 122 383T150
358L163 351L124 284Q81 301 49 338T17 426Q17 486 51 528T145 595T269 640T410 688T539 752L592 661L296 148Q276 113 272 85T280 48T315 45T372 87T444 181L755 720H859L509 111Q497 90 497 73T506 48T533 41T571 53T616 89T661 150L937 628Q980 702 1033 735T1130
764T1206 734T1248 677L1179 639Q1164 673 1139 680T1082 667T1023 596Z" />
<glyph unicode="X" glyph-name="X" horiz-adv-x="768" d="M303 125L486 332L520 643Q487 628 429 609T327 575T239 538T171 488T146 424Q146 378 178 356T252 344T323 396L371 349Q350 312 310 291T224 269Q180 269 144 290T89 345T70 420T90 502T162 579T289
636Q472 687 570 752L629 684L605 482L597 449L616 478L766 645Q814 698 867 720T961 734T1032 698T1067 632L992 609Q984 645 960 657T901 655T827 598L586 329L562 123Q557 80 575 72T625 82T693 135T761 210L768 218Q779 213 790 203T807 182Q773 134 725 90T628
20T539 -11T477 22T465 138L470 184L475 208L461 187L364 78Q317 24 264 2T169 -12T99 24T63 91L138 114Q146 78 170 66T230 68T303 125Z" />
<glyph unicode="Y" glyph-name="Y" horiz-adv-x="742" d="M512 218L513 217L800 719H904L493 12Q604 59 735 210L742 218Q753 213 764 203T781 182Q620 -6 452 -58L373 -195Q346 -241 306 -264T231 -285T171 -261T145 -202Q145 -92 374 -24L409 36Q352 -2 300
-6T219 16T193 105T247 252L469 638Q435 621 380 603T281 571T195 537T128 489T104 424Q104 401 118 383T146 358L159 351L120 284Q77 301 45 338T13 426Q13 486 47 528T141 595T265 640T406 688T535 752L588 661L325 206Q299 161 294 128T299 81T335 66T389 83T451
135T512 218ZM229 -183Q229 -197 238 -203T262 -203T286 -178L334 -94Q229 -134 229 -183Z" />
<glyph unicode="Z" glyph-name="Z" horiz-adv-x="620" d="M194 33L195 34L188 96Q260 109 333 157T462 269T553 410T588 552Q588 603 563 633T500 668T417 648T333 572T264 431T230 225L156 218Q146 352 181 462T276 636T407 729T541 749T646 688T688 551Q688
413 582 266T306 59L302 58Q330 35 334 -1Q405 21 470 71T613 210L620 218Q631 213 642 203T659 182Q495 -7 328 -59Q323 -76 310 -100L255 -196Q229 -242 188 -265T111 -286T49 -261T23 -202Q23 -92 254 -23Q266 2 247 18T197 33H195H194ZM107 -183Q107 -197 116
-203T139 -203T164 -178L213 -94Q107 -135 107 -183Z" />
<glyph unicode="[" glyph-name="bracketleft" horiz-adv-x="525" d="M-113 -182L513 902H739L692 820H570L39 -100H160L113 -182H-113Z" />
<glyph unicode="\" glyph-name="backslash" horiz-adv-x="364" d="M44 699H119L310 0H236L44 699Z" />
<glyph unicode="]" glyph-name="bracketright" horiz-adv-x="525" d="M739 902L113 -182H-113L-66 -100H56L587 820H466L513 902H739Z" />
<glyph unicode="_" glyph-name="underscore" horiz-adv-x="398" d="M-40 -125L0 -55H398L358 -125H-40Z" />
<glyph unicode="a" glyph-name="a" horiz-adv-x="491" d="M484 210L491 218Q502 213 513 203T530 182Q365 -10 259 -10Q220 -10 197 8T169 58Q86 -10 25 -10Q-37 -10 -58 35T-46 138L100 390Q132 445 183 477T278 510Q326 510 358 476T387 405H446L278 111Q262
80 266 67T290 54Q350 54 484 210ZM189 364L44 111Q28 80 32 67T56 54Q90 54 134 91T224 200L305 342Q319 369 318 389T302 418T269 425T228 408T189 364Z" />
<glyph unicode="b" glyph-name="b" horiz-adv-x="453" d="M396 720L264 491Q298 514 332 514Q375 514 400 488T426 421Q426 371 387 302L289 133Q378 135 446 210L453 218Q464 213 475 203T492 182Q454 137 392 109T279 81Q264 81 256 82Q219 34 172 10T79 -15Q27
-15 -7 14T-41 96Q-41 149 -4 212L290 720H396ZM157 253Q157 192 201 159L307 341Q327 375 327 403Q327 424 316 436T288 448Q245 448 201 380T157 253ZM92 58Q140 58 171 108Q118 141 105 216L68 152Q50 119 50 98Q50 79 62 69T92 58Z" />
<glyph unicode="c" glyph-name="c" horiz-adv-x="387" d="M189 364L82 178Q50 115 67 85T136 54Q189 54 255 98T380 210L387 218Q398 213 409 203T426 182Q354 98 271 44T105 -10Q13 -10 -22 55T-9 203L100 390Q169 510 295 510Q362 510 389 462T378 342L363 316H278L293
342Q311 373 312 395T301 426T270 432T229 412T189 364Z" />
<glyph unicode="d" glyph-name="d" horiz-adv-x="491" d="M484 210L491 218Q502 213 513 203T530 182Q365 -10 259 -10Q220 -10 197 8T169 58Q86 -10 25 -10Q-37 -10 -58 35T-46 138L100 390Q132 445 183 477T278 510Q339 510 373 456L526 720H630L278 111Q262
80 266 67T290 54Q350 54 484 210ZM189 364L44 111Q28 80 32 67T56 54Q91 54 136 93T227 206L306 342H305Q319 369 318 389T302 418T269 425T228 408T189 364Z" />
<glyph unicode="e" glyph-name="e" horiz-adv-x="387" d="M363 316Q335 268 298 237T223 195T153 184T92 196L82 178Q50 115 67 85T136 54Q189 54 255 98T380 210L387 218Q398 213 409 203T426 182Q354 98 271 44T105 -10Q13 -10 -22 55T-9 203L100 390Q169 510
295 510Q362 510 389 462T378 342L363 316ZM189 364L122 247Q139 241 156 240T195 244T238 267T278 316L293 342Q311 373 312 395T301 426T270 432T229 412T189 364Z" />
<glyph unicode="f" glyph-name="f" horiz-adv-x="372" d="M365 210L372 218Q383 213 394 203T411 182Q273 22 53 9Q71 -43 41 -96L-37 -233Q-63 -279 -95 -305T-154 -336T-204 -331T-239 -298T-249 -244T-228 -178L202 569Q234 625 275 662T352 710T418 716T464
686T476 621T443 530L276 241Q211 130 66 54Q241 67 365 210ZM298 564L16 80Q123 127 213 282L375 563Q390 590 392 608T386 632T364 633T333 611T298 564ZM-21 -71Q11 -11 -17 7H-26L-144 -195Q-159 -221 -161 -238T-156 -260T-135 -256T-108 -224L-21 -71Z" />
<glyph unicode="g" glyph-name="g" horiz-adv-x="464" d="M-133 -202Q-133 -94 95 -24L124 25Q68 -10 25 -10Q-37 -10 -58 35T-46 138L100 390Q132 445 183 477T278 510Q324 510 355 478T387 410H448L215 12Q326 59 457 210L464 218Q475 213 486 203T503 182Q342
-6 174 -58L95 -195Q68 -241 28 -264T-47 -285T-107 -261T-133 -202ZM189 364L44 111Q28 80 32 67T56 54Q90 54 135 92T226 204L305 342Q319 369 318 389T302 418T269 425T228 408T189 364ZM-49 -183Q-49 -197 -40 -203T-16 -203T8 -178L55 -94Q-49 -135 -49 -183Z"
/>
<glyph unicode="h" glyph-name="h" horiz-adv-x="491" d="M484 210L491 218Q502 213 513 203T530 182Q365 -10 259 -10Q197 -10 176 35T188 138L323 373Q334 392 335 406T331 426T307 428T267 407T209 357T137 275L-21 0H-126L289 720H393L227 431Q303 510 372
510Q419 510 438 472T428 374L278 111Q262 80 266 67T290 54Q350 54 484 210Z" />
<glyph unicode="i" glyph-name="i" horiz-adv-x="257" d="M220 613Q220 639 237 656T280 674Q306 674 323 656T341 613T324 571T280 553T237 570T220 613ZM250 210L257 218Q268 213 279 203T296 182Q131 -10 25 -10Q-37 -10 -58 35T-46 138L163 500H267L44 111Q28
80 32 67T56 54Q116 54 250 210Z" />
<glyph unicode="j" glyph-name="j" horiz-adv-x="281" d="M0 218Q59 287 126 378T214 500H318L33 12Q143 59 274 210L281 218Q292 213 303 203T320 182Q158 -6 -8 -58L-88 -195Q-115 -241 -155 -264T-230 -285T-290 -261T-316 -202Q-316 -92 -86 -24L33 185Q10
202 0 218ZM246 613Q246 639 263 656T306 674Q332 674 349 656T367 613T350 571T306 553T263 570T246 613ZM-232 -183Q-232 -197 -223 -203T-199 -203T-175 -178L-127 -94Q-232 -135 -232 -183Z" />
<glyph unicode="k" glyph-name="k" horiz-adv-x="431" d="M-21 0H-126L289 720H393L245 463Q276 491 312 503T377 509T425 483T443 425T412 339L384 291Q347 227 294 194T185 167V124Q185 91 198 73T230 54Q290 54 424 210L431 218Q442 213 453 203T470 182Q305
-10 199 -10Q139 -10 119 21T98 124V207L-21 0ZM276 288L326 374Q337 392 335 403T326 424T302 432T265 420T218 383T161 316L131 264Q151 217 200 230T276 288Z" />
<glyph unicode="l" glyph-name="l" horiz-adv-x="257" d="M250 210L257 218Q268 213 279 203T296 182Q131 -10 25 -10Q-37 -10 -58 35T-46 138L290 720H394L44 111Q28 80 32 67T56 54Q116 54 250 210Z" />
<glyph unicode="m" glyph-name="m" horiz-adv-x="750" d="M743 210L750 218Q761 213 772 203T789 182Q624 -10 518 -10Q456 -10 435 35T447 138L582 373Q594 394 595 409T586 429T555 424T504 391T432 319T343 204L226 0H120L335 373Q347 394 347 409T339 429T308
424T258 392T188 322T100 210L-21 0H-126L163 500H267L205 392Q299 510 384 510Q428 510 448 475T445 384Q544 510 631 510Q678 510 697 472T687 374L537 111Q521 80 525 67T549 54Q609 54 743 210Z" />
<glyph unicode="n" glyph-name="n" horiz-adv-x="491" d="M484 210L491 218Q502 213 513 203T530 182Q365 -10 259 -10Q197 -10 176 35T188 138L323 373Q334 392 335 406T331 426T307 428T267 408T210 358T138 277L-21 0H-126L163 500H267L228 432Q303 510 372
510Q419 510 438 472T428 374L278 111Q262 80 266 67T290 54Q350 54 484 210Z" />
<glyph unicode="o" glyph-name="o" horiz-adv-x="453" d="M279 81H256Q222 38 179 14T97 -14T25 -4T-26 38T-40 112T-4 212L41 289L92 378Q135 453 183 483T294 514Q343 514 376 484T413 406T387 302L289 133Q377 135 446 210L453 218Q464 213 475 203T492 182Q454
137 392 109T279 81ZM165 149Q165 175 183 193T226 211H231L307 341Q325 372 327 398T317 435T286 447T243 429T197 374L147 289L68 152Q51 121 51 99T64 67T97 58T138 73T174 112L175 114Q165 131 165 149Z" />
<glyph unicode="p" glyph-name="p" horiz-adv-x="451" d="M-147 -220H-252L163 500H267L246 464Q277 492 313 503T378 508T426 482T443 424T412 339L297 142Q292 134 278 107T254 64Q347 97 444 210L451 218Q479 210 490 182Q414 93 336 43T155 -10H149Q107 -10
79 11T42 53L35 74L94 102Q109 74 132 76T169 102L326 374Q331 383 332 394T326 411T310 422T285 423T252 409T211 376T164 321L-147 -220Z" />
<glyph unicode="q" glyph-name="q" horiz-adv-x="431" d="M445 410L243 64Q347 121 424 210L431 218Q442 213 453 203T470 182Q358 53 198 -12L197 -14Q202 -14 204 -15Q234 -27 244 -72T229 -168L192 -233Q166 -279 135 -305T76 -336T27 -331T-7 -298T-17 -244T5
-178L145 67Q58 -10 -1 -10Q-54 -10 -66 34T-41 147L100 390Q132 445 183 477T278 510Q324 510 355 478T387 410H445ZM51 74Q83 61 205 173L314 363Q323 390 312 407T280 426T233 412T189 364L64 146Q60 139 55 131T47 114T41 98T41 84T51 74ZM121 -224L167 -143Q202
-79 169 -62L92 -195Q77 -221 74 -238T76 -260T95 -256T121 -224Z" />
<glyph unicode="r" glyph-name="r" horiz-adv-x="424" d="M121 138L231 329Q248 358 225 388L211 405Q94 246 39 182Q13 199 0 218Q66 296 176 451L167 463Q138 498 144 541T194 623L248 564Q218 535 242 504L300 434Q319 411 327 393T334 349T315 293L211 111Q195
80 199 67T223 54Q283 54 417 210L424 218Q435 213 446 203T463 182Q298 -10 192 -10Q130 -10 109 35T121 138Z" />
<glyph unicode="s" glyph-name="s" horiz-adv-x="351" d="M69 -10Q27 -10 -1 11T-38 53L-45 74L20 108L24 98Q29 89 41 80T69 70Q103 70 123 103T150 179T165 281T187 372Q74 222 39 182Q13 199 0 218Q59 287 134 389T231 523L309 481Q281 423 266 350T241 206T219
97Q289 145 344 210L351 218Q379 210 390 182Q244 12 101 -7Q100 -7 100 -8H98Q78 -10 69 -10Z" />
<glyph unicode="t" glyph-name="t" horiz-adv-x="257" d="M68 500L98 550H192L290 720H394L296 550H382L352 500H267L44 111Q28 80 32 67T56 54Q116 54 250 210L257 218Q268 213 279 203T296 182Q131 -10 25 -10Q-37 -10 -58 35T-46 138L163 500H68Z" />
<glyph unicode="u" glyph-name="u" horiz-adv-x="491" d="M484 210L491 218Q502 213 513 203T530 182Q365 -10 259 -10Q211 -10 187 18T170 90Q66 -10 -1 -10Q-54 -10 -66 34T-41 147L163 500H267L64 146Q60 139 55 131T47 114T41 98T41 84T51 74Q82 60 211 177L396
500H500L278 111Q262 80 266 67T290 54Q350 54 484 210Z" />
<glyph unicode="v" glyph-name="v" horiz-adv-x="373" d="M113 500H218L79 153Q49 79 55 79T109 150L342 500H436L267 248Q243 193 256 175T303 168T366 210L373 218Q384 213 395 203T412 182Q371 134 326 117T249 111T202 151L148 70Q125 35 92 14T30 -8T-22
5T-48 53T-32 139L113 500Z" />
<glyph unicode="w" glyph-name="w" horiz-adv-x="662" d="M374 149Q374 175 392 193T435 211Q448 211 460 205Q543 327 604 500H671Q591 262 495 133Q584 133 655 210L662 218Q673 213 684 203T701 182Q663 137 601 109T488 81Q463 81 451 83Q361 -10 259 -10Q220
-10 197 8T168 57Q86 -10 25 -10Q-38 -10 -59 35T-46 138L164 500H267L44 111Q28 80 32 67T56 54Q90 54 135 92T227 205L398 500H501L278 111Q262 80 266 67T290 54Q329 54 385 112Q374 128 374 149Z" />
<glyph unicode="x" glyph-name="x" horiz-adv-x="480" d="M473 210L480 218Q491 213 502 203T519 182Q439 89 380 40T266 -10Q206 -10 187 28T177 138V142L46 1H-24L191 239L214 404Q85 235 39 182Q13 199 0 218Q75 306 169 432Q219 510 265 510Q299 510 309 482T310
392L300 329L449 500H526L284 223L267 111Q262 76 275 65T316 65T384 114T473 210Z" />
<glyph unicode="y" glyph-name="y" horiz-adv-x="464" d="M51 74Q83 60 213 180L397 500H501L216 12Q326 59 457 210L464 218Q475 213 486 203T503 182Q341 -6 175 -58L95 -195Q68 -241 28 -264T-47 -285T-107 -261T-133 -202Q-133 -92 96 -24L153 74Q59 -10 -1
-10Q-54 -10 -66 34T-41 147L163 500H267L64 146Q60 139 55 131T47 114T41 98T41 84T51 74ZM-49 -183Q-49 -197 -40 -203T-16 -203T8 -178L56 -94Q-49 -135 -49 -183Z" />
<glyph unicode="z" glyph-name="z" horiz-adv-x="464" d="M38 33L39 34L32 96Q113 123 194 189T315 323T324 421Q316 429 305 429T280 424T250 406T218 380T184 348T150 312T117 274T86 239T60 207T39 182Q13 199 0 218Q16 237 57 288T124 370T190 437T268 492T346
510Q389 510 412 485T435 421T417 331T363 231T272 136T150 59L146 58Q174 35 178 -1Q249 21 314 71T457 210L464 218Q475 213 486 203T503 182Q339 -7 172 -59Q167 -76 154 -100L99 -196Q73 -242 32 -265T-45 -286T-107 -261T-133 -202Q-133 -93 98 -23Q110 2
91 18T41 33H39H38ZM-49 -183Q-49 -197 -40 -203T-17 -203T8 -178L57 -94Q-49 -135 -49 -183Z" />
<glyph unicode="{" glyph-name="braceleft" horiz-adv-x="472" d="M282 504L448 786Q481 843 534 872T643 902H739L692 820H646Q604 820 579 804T527 744L381 496Q354 451 318 430T270 408Q276 404 281 397T286 364T267 306L73 -38Q53 -75 66 -101T117 -128H146L99
-210H85Q41 -210 8 -179T-31 -103T-15 -14L168 312Q182 336 185 356T183 387T173 402T166 408Q175 411 190 418T235 449T282 504Z" />
<glyph unicode="|" glyph-name="bar" horiz-adv-x="252" d="M-64 0L340 700H432L28 0H-64Z" />
<glyph unicode="}" glyph-name="braceright" horiz-adv-x="510" d="M282 188L116 -94Q83 -151 30 -180T-79 -210H-175L-128 -128H-82Q-40 -128 -15 -112T37 -52L194 218Q221 263 257 284T305 306Q299 310 294 317T289 350T308 408L491 730Q511 767 498 793T447
820H418L465 902H479Q523 902 556 871T595 795T579 706L396 380Q382 356 379 336T381 305T391 290T398 284Q389 281 374 274T329 243T282 188Z" />
</font>
</defs>
</svg>
